<mxfile host="app.diagrams.net" agent="Mozilla/5.0 (Windows NT 10.0; Win64; x64) AppleWebKit/537.36 (KHTML, like Gecko) Chrome/134.0.0.0 Safari/537.36 Edg/134.0.0.0" version="26.2.1">
  <diagram name="Page-1" id="BidPrYHlSaw0sjSpPwxJ">
    <mxGraphModel dx="1054" dy="1537" grid="0" gridSize="10" guides="1" tooltips="1" connect="1" arrows="1" fold="1" page="0" pageScale="1" pageWidth="827" pageHeight="1169" math="0" shadow="0">
      <root>
        <mxCell id="0" />
        <mxCell id="1" parent="0" />
        <mxCell id="O1fDmZWqZGZbxfCgHxZl-1" value="" style="rounded=0;whiteSpace=wrap;html=1;" vertex="1" parent="1">
          <mxGeometry x="-113" y="-190" width="653" height="1119" as="geometry" />
        </mxCell>
        <mxCell id="O1fDmZWqZGZbxfCgHxZl-2" value="" style="rounded=0;whiteSpace=wrap;html=1;" vertex="1" parent="1">
          <mxGeometry x="-113" y="-190" width="653" height="90" as="geometry" />
        </mxCell>
        <mxCell id="O1fDmZWqZGZbxfCgHxZl-3" value="" style="rounded=0;whiteSpace=wrap;html=1;" vertex="1" parent="1">
          <mxGeometry x="73" y="-81" width="281" height="85" as="geometry" />
        </mxCell>
        <mxCell id="O1fDmZWqZGZbxfCgHxZl-4" value="" style="rounded=0;whiteSpace=wrap;html=1;" vertex="1" parent="1">
          <mxGeometry x="-70" y="199" width="159" height="93" as="geometry" />
        </mxCell>
        <mxCell id="O1fDmZWqZGZbxfCgHxZl-5" value="" style="rounded=0;whiteSpace=wrap;html=1;" vertex="1" parent="1">
          <mxGeometry x="-70" y="321" width="159" height="93" as="geometry" />
        </mxCell>
        <mxCell id="O1fDmZWqZGZbxfCgHxZl-6" value="" style="rounded=0;whiteSpace=wrap;html=1;" vertex="1" parent="1">
          <mxGeometry x="-70" y="688" width="159" height="93" as="geometry" />
        </mxCell>
        <mxCell id="O1fDmZWqZGZbxfCgHxZl-7" value="" style="rounded=0;whiteSpace=wrap;html=1;" vertex="1" parent="1">
          <mxGeometry x="-70" y="565" width="159" height="93" as="geometry" />
        </mxCell>
        <mxCell id="O1fDmZWqZGZbxfCgHxZl-8" value="" style="rounded=0;whiteSpace=wrap;html=1;" vertex="1" parent="1">
          <mxGeometry x="-70" y="443" width="159" height="93" as="geometry" />
        </mxCell>
        <mxCell id="O1fDmZWqZGZbxfCgHxZl-9" value="" style="rounded=0;whiteSpace=wrap;html=1;" vertex="1" parent="1">
          <mxGeometry x="-70" y="811" width="159" height="93" as="geometry" />
        </mxCell>
        <mxCell id="O1fDmZWqZGZbxfCgHxZl-11" value="" style="rounded=0;whiteSpace=wrap;html=1;" vertex="1" parent="1">
          <mxGeometry x="-31" y="35" width="489" height="119" as="geometry" />
        </mxCell>
        <mxCell id="O1fDmZWqZGZbxfCgHxZl-12" value="" style="ellipse;whiteSpace=wrap;html=1;aspect=fixed;" vertex="1" parent="1">
          <mxGeometry x="-99" y="-185" width="80" height="80" as="geometry" />
        </mxCell>
        <mxCell id="O1fDmZWqZGZbxfCgHxZl-13" value="" style="rounded=0;whiteSpace=wrap;html=1;fillColor=#FFFFFF;" vertex="1" parent="1">
          <mxGeometry x="-113" y="-190" width="653" height="1119" as="geometry" />
        </mxCell>
        <mxCell id="O1fDmZWqZGZbxfCgHxZl-14" value="&lt;font style=&quot;font-size: 23px;&quot;&gt;Navigation Bar&lt;/font&gt;" style="rounded=0;whiteSpace=wrap;html=1;fillColor=light-dark(#FFFFFF,#EDEDED);" vertex="1" parent="1">
          <mxGeometry x="-113" y="-190" width="653" height="90" as="geometry" />
        </mxCell>
        <mxCell id="O1fDmZWqZGZbxfCgHxZl-15" value="&lt;font style=&quot;font-size: 26px;&quot;&gt;Title&lt;/font&gt;" style="rounded=0;whiteSpace=wrap;html=1;" vertex="1" parent="1">
          <mxGeometry x="73" y="-81" width="281" height="85" as="geometry" />
        </mxCell>
        <mxCell id="O1fDmZWqZGZbxfCgHxZl-16" value="&lt;font style=&quot;font-size: 30px;&quot;&gt;Image&lt;/font&gt;" style="rounded=0;whiteSpace=wrap;html=1;" vertex="1" parent="1">
          <mxGeometry x="-70" y="199" width="159" height="93" as="geometry" />
        </mxCell>
        <mxCell id="O1fDmZWqZGZbxfCgHxZl-17" value="&lt;font style=&quot;font-size: 30px;&quot;&gt;Image&lt;/font&gt;" style="rounded=0;whiteSpace=wrap;html=1;" vertex="1" parent="1">
          <mxGeometry x="-70" y="321" width="159" height="93" as="geometry" />
        </mxCell>
        <mxCell id="O1fDmZWqZGZbxfCgHxZl-18" value="&lt;font style=&quot;font-size: 30px;&quot;&gt;Image&lt;/font&gt;" style="rounded=0;whiteSpace=wrap;html=1;" vertex="1" parent="1">
          <mxGeometry x="-70" y="688" width="159" height="93" as="geometry" />
        </mxCell>
        <mxCell id="O1fDmZWqZGZbxfCgHxZl-19" value="&lt;font style=&quot;font-size: 30px;&quot;&gt;Image&lt;/font&gt;" style="rounded=0;whiteSpace=wrap;html=1;" vertex="1" parent="1">
          <mxGeometry x="-70" y="565" width="159" height="93" as="geometry" />
        </mxCell>
        <mxCell id="O1fDmZWqZGZbxfCgHxZl-20" value="&lt;font style=&quot;font-size: 30px;&quot;&gt;Image&lt;/font&gt;" style="rounded=0;whiteSpace=wrap;html=1;" vertex="1" parent="1">
          <mxGeometry x="-70" y="443" width="159" height="93" as="geometry" />
        </mxCell>
        <mxCell id="O1fDmZWqZGZbxfCgHxZl-21" value="&lt;font style=&quot;font-size: 30px;&quot;&gt;Image&lt;/font&gt;" style="rounded=0;whiteSpace=wrap;html=1;" vertex="1" parent="1">
          <mxGeometry x="-70" y="811" width="159" height="93" as="geometry" />
        </mxCell>
        <mxCell id="O1fDmZWqZGZbxfCgHxZl-22" value="&lt;font style=&quot;font-size: 23px;&quot;&gt;Brief info about Devon Dive Adventures&lt;/font&gt;" style="rounded=0;whiteSpace=wrap;html=1;" vertex="1" parent="1">
          <mxGeometry x="-31" y="35" width="489" height="119" as="geometry" />
        </mxCell>
        <mxCell id="O1fDmZWqZGZbxfCgHxZl-23" value="&lt;font style=&quot;font-size: 26px;&quot;&gt;Logo&lt;/font&gt;" style="ellipse;whiteSpace=wrap;html=1;aspect=fixed;" vertex="1" parent="1">
          <mxGeometry x="-99" y="-185" width="80" height="80" as="geometry" />
        </mxCell>
        <mxCell id="O1fDmZWqZGZbxfCgHxZl-24" value="&lt;font style=&quot;font-size: 36px;&quot;&gt;Text&lt;/font&gt;" style="rounded=0;whiteSpace=wrap;html=1;" vertex="1" parent="1">
          <mxGeometry x="138" y="199" width="353" height="93" as="geometry" />
        </mxCell>
        <mxCell id="O1fDmZWqZGZbxfCgHxZl-25" value="&lt;font style=&quot;font-size: 36px;&quot;&gt;Text&lt;/font&gt;" style="rounded=0;whiteSpace=wrap;html=1;" vertex="1" parent="1">
          <mxGeometry x="138" y="321" width="353" height="93" as="geometry" />
        </mxCell>
        <mxCell id="O1fDmZWqZGZbxfCgHxZl-26" value="&lt;font style=&quot;font-size: 36px;&quot;&gt;Text&lt;/font&gt;" style="rounded=0;whiteSpace=wrap;html=1;" vertex="1" parent="1">
          <mxGeometry x="138" y="443" width="353" height="93" as="geometry" />
        </mxCell>
        <mxCell id="O1fDmZWqZGZbxfCgHxZl-27" value="&lt;font style=&quot;font-size: 36px;&quot;&gt;Text&lt;/font&gt;" style="rounded=0;whiteSpace=wrap;html=1;" vertex="1" parent="1">
          <mxGeometry x="138" y="565" width="353" height="93" as="geometry" />
        </mxCell>
        <mxCell id="O1fDmZWqZGZbxfCgHxZl-28" value="&lt;font style=&quot;font-size: 36px;&quot;&gt;Text&lt;/font&gt;" style="rounded=0;whiteSpace=wrap;html=1;" vertex="1" parent="1">
          <mxGeometry x="138" y="688" width="353" height="93" as="geometry" />
        </mxCell>
        <mxCell id="O1fDmZWqZGZbxfCgHxZl-29" value="&lt;font style=&quot;font-size: 36px;&quot;&gt;Text&lt;/font&gt;" style="rounded=0;whiteSpace=wrap;html=1;" vertex="1" parent="1">
          <mxGeometry x="138" y="811" width="353" height="93" as="geometry" />
        </mxCell>
      </root>
    </mxGraphModel>
  </diagram>
</mxfile>
